<?xml version="1.0" encoding="iso-8859-1"?>
<!-- Generator: Adobe Illustrator 19.0.0, SVG Export Plug-In . SVG Version: 6.00 Build 0)  -->
<svg version="1.1" id="Layer_1" xmlns="http://www.w3.org/2000/svg" xmlns:xlink="http://www.w3.org/1999/xlink" x="0px" y="0px"
	 viewBox="0 0 512.006 512.006" style="enable-background:new 0 0 512.006 512.006;" xml:space="preserve">
<circle style="fill:#E4E7ED;" cx="256.003" cy="256.003" r="256.003"/>
<path style="fill:#75BD80;" d="M59.435,379.857c101.342,0,184.748,57.849,195.339,132.131
	C159.39,511.54,76.353,458.928,32.685,381.225C41.434,380.329,50.359,379.857,59.435,379.857z"/>
<path style="fill:#83CF8F;" d="M353.827,317.315c52.018,0,100.415,11.547,140.868,31.377C457.554,444.257,364.695,512,256.003,512
	c-56.674,0-109.037-18.431-151.452-49.608c27.944-83.346,128.94-145.083,249.276-145.083V317.315z"/>
<g>
	<path style="fill:#FEFEFE;" d="M316.238,352.162h32.751v142.424c-10.59,4.129-21.525,7.569-32.751,10.275V352.162z"/>
	<path style="fill:#FEFEFE;" d="M106.809,351.356h11.22v48.797c-1.259,1.81-7.442,2.198-11.22,1.09V351.356z"/>
</g>
<g>
	<polygon style="fill:#E4E7ED;" points="316.238,352.162 348.989,352.162 348.989,444.342 316.238,392.881 	"/>
	<path style="fill:#E4E7ED;" d="M345.071,352.162h3.911v142.424c-1.296,0.509-2.604,0.999-3.911,1.49V352.162z"/>
</g>
<polygon style="fill:#FEFEFE;" points="77.594,276.965 161.752,262.076 131.707,357.357 58.333,339.785 "/>
<g>
	<polygon style="fill:#8597B1;" points="78.738,279.92 74.548,294.694 144.58,287.894 151.004,268.161 	"/>
	<polygon style="fill:#8597B1;" points="73.931,296.02 70.316,308.845 138.362,308.711 144.071,289.747 	"/>
	<polygon style="fill:#8597B1;" points="69.953,310.177 65.981,323.649 131.295,331.569 137.647,310.915 	"/>
	<polygon style="fill:#8597B1;" points="65.333,325.52 61.67,337.545 124.992,351.841 130.417,333.809 	"/>
</g>
<g>
	<polygon style="fill:#ECF0F1;" points="80.924,286.938 82.608,285.448 84.321,279.012 84.824,278.927 83.05,285.466 
		84.085,286.399 82.317,288.215 78.884,301.076 79.931,302.251 78.151,303.843 74.724,316.692 75.808,318.096 73.979,319.477 
		70.51,332.501 71.473,334.118 69.759,335.311 68.869,338.641 68.457,338.526 69.371,335.099 68.457,333.785 70.05,332.55 
		73.586,319.283 72.69,317.994 74.27,316.716 77.745,303.674 76.843,302.432 78.442,301.082 81.911,288.058 	"/>
	<polygon style="fill:#ECF0F1;" points="92.386,285.164 94.215,283.287 95.88,277.123 96.383,277.05 94.693,283.299 95.813,284.31 
		93.888,286.29 90.092,300.307 91.218,301.621 89.274,303.322 85.49,317.315 86.586,318.769 84.666,320.349 80.936,334.136 
		81.99,335.94 80.107,337.194 79.017,341.226 78.569,341.099 79.689,336.964 78.793,335.395 80.434,334.184 84.236,320.143 
		83.371,318.641 84.999,317.34 88.844,303.129 87.906,301.954 89.607,300.313 93.446,286.126 	"/>
	<polygon style="fill:#ECF0F1;" points="103.903,283.226 105.871,281.192 107.409,275.258 107.941,275.167 106.391,281.21 
		107.53,282.397 105.544,284.443 101.426,300.107 102.662,301.209 100.657,303.02 96.782,317.818 98.084,319.441 95.928,321.1 
		91.956,336.213 93.083,337.896 91.091,339.519 89.825,344.345 89.341,344.205 90.636,339.271 89.534,337.424 91.424,336.267 
		95.456,320.87 94.318,319.404 96.249,317.848 100.179,302.814 99.113,301.433 100.9,300.113 105.065,284.261 	"/>
	<polygon style="fill:#ECF0F1;" points="117.872,280.901 119.997,278.721 121.632,272.945 122.243,272.842 120.542,278.739 
		121.789,279.914 119.543,282.209 114.79,298.727 116.073,300.501 113.778,302.22 109.177,318.212 110.4,319.992 108.159,321.736 
		103.485,337.945 104.72,339.719 102.468,341.493 101.178,345.961 100.669,345.816 101.989,341.226 101.075,339.137 
		102.922,337.999 107.675,321.487 106.676,320.022 108.614,318.242 113.294,301.996 112.192,300.646 114.239,298.739 
		119.052,282.021 	"/>
	<polygon style="fill:#ECF0F1;" points="133.239,278.406 135.485,276.402 137.26,270.396 137.883,270.311 136.073,276.426 
		137.399,277.692 135.068,279.859 129.77,297.722 131.09,299.72 128.655,301.5 123.466,319.023 124.762,320.858 122.34,322.825 
		117.296,339.882 118.544,341.929 116.164,343.709 114.608,348.971 114.057,348.813 115.655,343.418 114.614,341.293 
		116.685,339.943 121.825,322.565 120.766,320.858 122.867,319.059 128.129,301.264 127.22,299.72 129.176,297.728 134.541,279.654 
			"/>
	<g>
		<polygon style="fill:#ECF0F1;" points="76.323,287.386 148.691,275.131 148.286,276.36 76.159,287.949 		"/>
		<polygon style="fill:#ECF0F1;" points="71.933,302.402 141.468,298.491 141.056,299.72 71.769,302.959 		"/>
		<polygon style="fill:#ECF0F1;" points="67.652,317.485 134.831,320.736 134.389,322.202 67.494,318.024 		"/>
		<polygon style="fill:#ECF0F1;" points="63.165,332.562 127.656,342.946 127.251,344.175 62.996,333.125 		"/>
	</g>
</g>
<polygon style="fill:#FEFEFE;" points="229.797,135.031 470.336,91.575 384.453,369.666 174.758,318.393 "/>
<polygon style="fill:#C6CBD6;" points="469.549,91.363 481.604,101.802 395.261,388.358 180.898,328.444 174.758,318.393 
	384.453,369.666 "/>
<path style="fill:#FCD34E;" d="M113.276,47.846c5.655,0.817,11.105,2.295,16.258,4.347c8.913-4.293,16.681-10.427,23.009-18.897
	c-4.178,9.712-5.607,19.515-4.862,29.391c4.408,3.488,8.392,7.478,11.88,11.88c9.876,0.739,19.679-0.684,29.391-4.862
	c-8.471,6.321-14.605,14.09-18.897,23.003c2.053,5.153,3.53,10.602,4.354,16.258c8.174,5.577,17.378,9.24,27.871,10.475
	c-10.499,1.241-19.703,4.905-27.877,10.481c-0.823,5.655-2.301,11.099-4.347,16.251c4.293,8.913,10.427,16.687,18.904,23.015
	c-9.718-4.178-19.521-5.607-29.397-4.862c-3.488,4.408-7.472,8.392-11.874,11.88c-0.739,9.87,0.684,19.679,4.862,29.397
	c-6.321-8.471-14.096-14.605-23.003-18.897c-5.159,2.053-10.608,3.53-16.264,4.354c-5.577,8.18-9.234,17.378-10.475,27.871
	c-1.235-10.499-4.905-19.697-10.475-27.877c-5.655-0.823-11.099-2.301-16.251-4.354c-8.913,4.293-16.687,10.427-23.009,18.904
	c4.178-9.718,5.607-19.521,4.862-29.397c-4.402-3.488-8.392-7.478-11.874-11.88c-9.876-0.739-19.679,0.684-29.397,4.862
	c8.471-6.321,14.598-14.096,18.897-23.003c-2.053-5.159-3.53-10.602-4.347-16.264c-8.18-5.571-17.378-9.234-27.877-10.475
	c10.499-1.235,19.703-4.905,27.877-10.481c0.823-5.655,2.301-11.099,4.347-16.251C31.268,83.8,25.134,76.026,16.663,69.698
	c9.718,4.178,19.521,5.607,29.397,4.862c3.488-4.402,7.472-8.386,11.874-11.874c0.745-9.876-0.678-19.679-4.862-29.397
	c6.321,8.471,14.096,14.605,23.003,18.897c5.153-2.053,10.602-3.53,16.258-4.347c5.577-8.18,9.24-17.378,10.475-27.877
	c1.241,10.499,4.905,19.703,10.481,27.877L113.276,47.846z"/>
<circle style="fill:#FFE356;" cx="102.795" cy="119.452" r="57.958"/>
<g>
	<polygon style="fill:#8597B1;" points="235.598,143.654 223.058,186.783 432.759,166.935 451.989,109.34 	"/>
	<polygon style="fill:#8597B1;" points="221.211,190.646 210.385,228.078 414.128,227.684 431.221,172.342 	"/>
	<polygon style="fill:#8597B1;" points="209.283,231.959 197.397,271.292 392.972,294.403 411.997,234.12 	"/>
	<polygon style="fill:#8597B1;" points="195.466,276.747 184.488,311.854 374.105,353.572 390.344,300.949 	"/>
</g>
<g>
	<polygon style="fill:#ECF0F1;" points="242.137,164.143 247.187,159.808 252.322,141.001 253.823,140.765 248.507,159.844 
		251.607,162.563 246.315,167.867 236.046,205.414 239.164,208.847 233.836,213.491 223.579,250.977 226.83,255.077 
		221.351,259.115 210.948,297.134 213.849,301.839 208.714,305.327 206.05,315.051 204.808,314.706 207.545,304.709 204.802,300.87 
		209.58,297.261 220.17,258.552 217.488,254.78 222.222,251.056 232.637,212.989 229.93,209.356 234.702,205.426 245.104,167.425 	
		"/>
	<polygon style="fill:#ECF0F1;" points="276.463,158.96 281.942,153.475 286.92,135.491 288.427,135.28 283.377,153.523 
		286.726,156.484 280.955,162.26 269.596,203.162 272.969,207 267.15,211.959 255.815,252.8 259.097,257.032 253.351,261.664 
		242.18,301.893 245.328,307.173 239.697,310.818 236.427,322.595 235.083,322.226 238.432,310.146 235.755,305.575 240.69,302.033 
		252.067,261.053 249.476,256.675 254.338,252.879 265.854,211.408 263.051,207.981 268.137,203.174 279.635,161.77 	"/>
	<polygon style="fill:#ECF0F1;" points="310.958,153.299 316.849,147.365 321.439,130.042 323.037,129.788 318.411,147.42 
		321.796,150.889 315.868,156.865 303.54,202.58 307.234,205.801 301.227,211.075 289.638,254.277 293.513,259.006 287.065,263.844 
		275.191,307.967 278.558,312.871 272.594,317.618 268.809,331.702 267.338,331.302 271.213,316.885 267.925,311.503 
		273.574,308.124 285.666,263.184 282.245,258.903 288.04,254.362 299.811,210.482 296.601,206.449 301.96,202.598 314.433,156.339 
			"/>
	<polygon style="fill:#ECF0F1;" points="352.773,146.524 359.155,140.154 364.041,123.291 365.864,123 360.784,140.208 
		364.508,143.641 357.787,150.35 343.545,198.56 347.402,203.737 340.53,208.738 326.737,255.416 330.4,260.611 323.691,265.703 
		309.704,313.016 313.404,318.187 306.647,323.376 302.796,336.413 301.27,335.983 305.23,322.595 302.481,316.486 308.009,313.18 
		322.256,264.989 319.259,260.708 325.06,255.507 339.071,208.102 335.777,204.148 341.886,198.578 356.303,149.781 	"/>
	<polygon style="fill:#ECF0F1;" points="398.803,139.246 405.518,133.396 410.84,115.867 412.699,115.601 407.28,133.457 
		411.252,137.157 404.276,143.484 388.406,195.617 392.36,201.442 385.058,206.643 369.539,257.783 373.408,263.154 
		366.167,268.888 351.054,318.666 354.796,324.648 347.663,329.843 343,345.192 341.366,344.732 346.143,328.995 343.013,322.795 
		349.225,318.841 364.623,268.119 361.438,263.154 367.729,257.886 383.49,205.947 380.765,201.448 386.62,195.635 402.684,142.879 
			"/>
	<g>
		<polygon style="fill:#ECF0F1;" points="228.362,165.451 445.057,129.685 443.84,133.263 227.866,167.092 		"/>
		<polygon style="fill:#ECF0F1;" points="215.229,209.271 423.422,197.87 422.205,201.448 214.733,210.912 		"/>
		<polygon style="fill:#ECF0F1;" points="202.399,253.29 403.562,262.791 402.23,267.071 201.92,254.877 		"/>
		<polygon style="fill:#ECF0F1;" points="188.957,297.298 382.079,327.615 380.856,331.193 188.46,298.939 		"/>
	</g>
</g>
<polygon style="fill:#E4E7ED;" points="106.809,355.013 118.029,357.762 118.029,365.785 "/>
<polygon style="fill:#C6CBD6;" points="161.752,262.076 165.04,264.916 134.65,362.449 60.004,342.522 58.333,339.785 
	131.707,357.357 "/>
<g>
</g>
<g>
</g>
<g>
</g>
<g>
</g>
<g>
</g>
<g>
</g>
<g>
</g>
<g>
</g>
<g>
</g>
<g>
</g>
<g>
</g>
<g>
</g>
<g>
</g>
<g>
</g>
<g>
</g>
</svg>
